<?xml version="1.0" encoding="UTF-8"?>
<svg id="Camada_1" data-name="Camada 1" xmlns="http://www.w3.org/2000/svg" viewBox="0 0 32 32">
  <defs>
    <style>
      .cls-1 {
        fill: #fff;
      }

      .cls-2 {
        fill: #e66f33;
      }
    </style>
  </defs>
  <path class="cls-1" d="M12.83,30.05c-2-.27-4.95-1.51-5.45-3.66-.1-.45.09-1.3.48-2.97.5-2.15.75-3.23,1.01-3.66,2-3.35,15.49-1.99,16.81,3.06.6,2.29-1.22,5.67-3.57,6.68-.8.34-1.73.44-2.81.55-.71.07-1.3.09-4.13.04-1.53-.02-2.29-.04-2.34-.04Z"/>
  <path class="cls-2" d="M24.9,11.98l.02.18c.07.1.09.18.04.24.03.04.02.07-.01.08.4.95.74,1.92,1.02,2.9.12,0,.18.13.19.37.06.04.06.09.07.18l.03,1.42c.28.68.65,1.26.82,1.97.23.93.17,1.86-.27,2.71.19.62.28,1.22.18,1.82-.12.12-.1-.12-.08-.24l-.12-.18c-.02-.36-.06-.73-.12-1.08,0-.02-.03-.04-.06-.06-.04-.21-.14.11-.17.23-.02.08-.01.16,0,.23.05,0,.12,0,.13.03.14.35.27,1.11.29,1.49,0,.04,0,.07-.04.09.05.85-.24,1.61-.75,2.3-.29.38-.65.65-.97,1.01-.94,1.03-2.2,1.76-3.58,2.03,0-.14.1-.24.01-.37-.28.26-.52.65-.95.51.78-.31,1.1-1.09.82-1.82-.2-.53-.53-.81-1-1.08-.78-.44-1.38-1.07-1.68-1.93-.04-.1-.09-.2-.17-.26-.15-.04-.05-.35.11-.31h.14s.3.79.3.79c-.25-.72-.33-1.5-.17-2.25.01,0,.55-2.25.47-2.04-.27.73-.49,1.53-.61,2.31l-.14.22c-.1.72-.22,1.45-.35,2.18-.12.82-.23,1.64-.32,2.45l-.38,1.91c-.26.1-.54.04-.8.04h-.65c-.18,0-.54.13-.71-.1-.47-2.24-.9-4.48-1.17-6.74v-.55c0-.1.1-.09.26.02l.21-.02c1.17.61,2.53.65,3.71.04.06-.34.15-.67.26-1.01l.18-.19c-.05-.09-.03-.21.03-.35.07-.38.12-.76.13-1.15l.1-.14c-.13-.1-.13-.14,0-.24-.01-.17,0-.32.04-.46.82-.38,1.48-.77,2.1-1.46.19-.22.47-.62.43-.91l-.04-.19c.39-1,.44-2.1.48-3.16l-1.3-1.73c-.66-.27-1.35-.23-2.03-.12-.18-.03-.31-.17-.27-.36.12-.48,1.42-.45,1.8-.32-.4-.71-.71-1.46-.91-2.24l.03-.16c-.04-.23-.02-.29.07-.18l.19.21c.33.95.73,1.88,1.3,2.71-.7-1.25-1.25-2.52-1.63-3.81l.03-.05h-.07s-.06-.23-.17-.7l-.11.02c-.74.78-1.66,1.37-2.62,1.86l-2.45,1.19c-1.41.97-2.5,2.47-2.76,4.21l-.15.18c-.03.13-.02.26.03.4.02.22.03.57-.17.26-.1-.01-.16-.09-.18-.24-.26.22-.9.4-.84-.06.66-.23.87-1.36-.09-1.02-1.18.42-.48,2.69.64,2.9l.07.15c.12.07.26.13.4.17.05.16.22.13.5-.07-.02-.12.02-.14.13-.11.12.35.33.65.61.89l.22.07c.95,1.04,2.25,1.56,3.61,1.78l.18.15.25.05c.64-.03.38.23-.09.16-.15.1-.33.12-.54.05l-1.32-.33c.03.54-.03,1.06-.19,1.56l-.15.03c-.1.15-.13,0-.14-.13,0-.61.25-.99.08-1.2-.48.35-1.04.68-1.27,1.21l-1.26,2.84,1.11.75c-.13.35-.51.59-.8.94-.1.14-.2.04-.13-.1l.69-.79-.98-.67c-.09-.06-.04-.23,0-.32l.97-2.29c.05-.12.13-.21.08-.33-.15-.05-.33-.02-.54.09l-.38.24-.57.21c-1.26.47-2.34.75-2.9,2.05-.29-.11-.53-.27-.72-.48l-.02-.14c-.12-.11-.24-.24-.31-.39-.18.1-.37-.13-.24-.29-.21-.21-.35-.53-.35-.82-.19-.13-.22-.61-.23-.86.03-.74.17-1.48.44-2.21.13-.6.07-.8-.07-.05l-.13.05c-.1.06-.11.05-.14-.04s.16-.92.25-1.01v-.34c.01-.64.03-1.28.07-1.92-.03-.05-.05-.1-.07-.15s-.03-.1-.03-.15c.07-.95.33-1.8.61-2.7.12-.39.29-.81.46-1.14,0-.13.05-.27.18-.3.94-3.44,3.7-6.87,7.56-6.89.04,0,.08.03.12.07.47-.15.99-.07,1.48.04.03,0,.06.04.08.08.14.02.2,0,.19-.08-.45-.04-.9-.09-1.36-.13-.3-.09-.62-.1-.97-.05l-.11.08c-.69.11-1.39.23-2.05.48l-.26-.02c-.21.08-.34.04-.13-.12.28-.21.59-.23.94-.32,1.34-.36,2.73-.53,4.06-.08l1.44.49c-.04.61.69.22,1.76.68s1.94,1.26,2.53,2.29l.57,1.01c.58,1.31.5,2.51,1.26,4Z"/>
  <path class="cls-2" d="M6.39,18.5l.06.19c-.24.87-.3,1.8-.03,2.67l-.02.1h.08c.08.25.2.46.35.64.06.13.12.21.24.29.07.15.19.28.31.39.13.04.21.18.3.27.19.19.54.1.44.35-.17.4-.26.84-.38,1.29-.1.4-.1.83-.37,1.2-.01-.87.26-1.65.48-2.48-1.12-.57-1.86-1.73-1.92-3.02-.03-.57.06-1.12.2-1.64.06-.2.24-.62.25-.26Z"/>
  <path class="cls-2" d="M11.38,4.61l-.14.22c-1.81,1.13-2.71,3.01-3.25,5.01l-.11.11c-.04.13-.08.13-.12,0-.07.04-.1,0-.08-.12.19-.45.31-.92.47-1.41.55-1.67,1.63-3.03,3.1-3.93.19-.1.3-.03.12.12Z"/>
  <path class="cls-2" d="M11.85,25.66c.62,1.39,1.3,2.76,2.02,4.13.03.05,0,.12-.02.13s-.08,0-.11-.06c-.78-1.32-1.43-2.68-2.03-4.07-.07-.22,0-.36.14-.13Z"/>
  <path class="cls-2" d="M18.66,24.44l-.11.31-.58,3.36c-.03-.17-.03-.36.03-.54.1-.26-.04-.64.05-.85.1-.23.1-.26.1-.49-.02-.64.21-1.27.27-1.91.03-.32.03-.61.22-.85.05,0,.08.02.12.05.03.03.03.73.02.83l-.11.08Z"/>
  <path class="cls-2" d="M7.38,10.83l.08.11c-.49.96-.84,1.97-1.05,3.03l-.04.77-.11.23c-.02.05-.04.05-.06,0-.04-.28-.06-.57-.06-.87.1-.83.36-1.63.73-2.41l.42-.9c.09-.13.13-.09.09.06Z"/>
  <path class="cls-2" d="M26.89,23.62l.02.64c0,.05,0,.1-.1.11l-.11-.56-.28-1.05c-.04-.16,0-.44.17-.47l.12-.06c.12.47.17.92.18,1.38Z"/>
  <path class="cls-2" d="M26.16,15.77l-.19-.37c-.23-.96-.56-1.9-1-2.83v-.15c-.09-.13-.21-.29-.07-.43.44.86.84,1.75,1.11,2.7.11.38.2.74.14,1.09Z"/>
  <path class="cls-2" d="M14.18,20.9l.12.05c.06.59.13,1.17.22,1.74-.04-.01-.23,0-.23.07l-.03.46-.22-1.81v-.65c-.01.08.07.12.14.13Z"/>
  <path class="cls-2" d="M20.21,28.04l-.9,1.82c-.04.08-.1.12-.19.09l.91-1.93c.07-.11.11-.09.18.01Z"/>
  <path class="cls-2" d="M6.6,17.15c-.02.52-.25.97-.1,1.06.16.08.07.32-.1.29,0-.07-.08-.09-.07-.01-.06.09-.15.18-.18.27l.31-1.51s.04-.08.07-.1c.02-.01.06,0,.08,0Z"/>
  <path class="cls-2" d="M12.49,4.03c-.24.29-.74.56-1.11.58,0-.04,0-.09-.04-.11-.02-.01-.06-.01-.08-.01.19-.12.34-.32.6-.4.16-.05.39-.09.5-.18,0,.03-.02.06-.01.09.02.05.1.07.14.04Z"/>
  <path class="cls-2" d="M6.53,16.18c.12,0,.15.42,0,.45-.19-.52-.4-1.07-.4-1.62,0-.06.02-.08.06-.06h.06s.13.14.13.14c.09.37.14.73.15,1.09Z"/>
  <path class="cls-2" d="M12.52,20.81c-.3.12-.61.22-.92.33l.33-.33.66-.21c-.02.12-.1.14-.07.21Z"/>
  <path class="cls-2" d="M7.76,9.95c.06.13.02.63-.2.54.03.23-.03.35-.18.33l-.09-.06.4-.94s.08.09.08.12Z"/>
  <path class="cls-2" d="M20.21,28.04s-.12.05-.18-.01l.41-.84.11.02-.34.83Z"/>
  <path class="cls-2" d="M6.61,16.82c-.1-.02-.05-.13-.07-.18.11-.12.04-.3,0-.45-.03-.39-.04-.78-.05-1.18,0-.13.06-.17.18-.11v1.69s-.05.23-.05.23Z"/>
  <path class="cls-2" d="M11.89,25.31c-.1.13-.1.2-.04.35-.04-.02-.1-.02-.12.03-.01.03-.01.07-.02.1-.04-.1-.11-.18-.11-.33,0-.1.08-.17.16-.25l.13.1Z"/>
  <path class="cls-2" d="M6.2,14.95s-.03.06-.06.06l-.06-.46.06-.47s.06.05.06.11v.76Z"/>
  <path class="cls-2" d="M26.98,23.86l-.07.41c-.09-.19-.08-.45-.02-.64,0,.08,0,.19.08.24Z"/>
  <path class="cls-1" d="M19.18,6.68c.03.08.03.14,0,.19l-.03.08c.11.52.22,1.04.31,1.56.27.89.64,1.74,1.13,2.63-.9-.39-2.07-.12-1.94.23.03.07.14.13.23.11.7-.13,1.38-.13,2.03.15.42.62.85,1.18,1.33,1.77,0,1.09-.11,2.46-.54,3.39.02.07.05.15.01.22-.59,1.03-1.39,1.7-2.5,2.11-.52.19-1.94.48-2.45.37-.04,0-.06-.05-.09-.1l-.46-.03c-1.65-.28-2.86-.71-4.01-2-.23-.2-.5-.46-.53-.75-.05-.02-.08-.04-.1-.07-.28-.57-.5-1.36-.43-1.97l-.03-.18c-.08-.13-.08-.22,0-.28.17-1.14.59-2.27,1.4-3.16.47-.52.94-1.09,1.57-1.39l2.17-1.04c.98-.47,2.15-1.21,2.87-2.04.09.07.06.15.07.2Z"/>
  <path class="cls-1" d="M16.37,19.58c.4-.05.82-.09,1.24-.11l.83-.13c.17.02.14.14.09.26.05.03.08.08.08.13.02.37.04.65.1,1.02.1.19.11.41.03.67.11-.17.15-.11.13.08-.12.42-.25.83-.34,1.27-1.27.73-2.78.61-4-.09-.15-.08-.16-.16-.18-.35l-.16-1.44c.1-.2.18-.43.19-.68l.03-1.07c.66.26,1.3.38,1.96.44Z"/>
  <path class="cls-2" d="M10.97,14.78l.09.09c.11.54.27,1.07.48,1.59.04.09-.4.34-.44.34-.17-.1-.35-.2-.54-.29-1.02-.33-1.65-1.38-1.37-2.44.14-.45.48-.78.95-.77.15,0,.4.06.45.23.14.47-.18.86-.61,1.05.33.2.59-.02.84-.21.09.11.13.28.14.42Z"/>
  <path class="cls-2" d="M14.91,3.49c.14-.01.28-.02.42-.02.57,0,.77.06.17.16-1.99.05-3.84.96-5.19,2.47-1.02,1.1-1.71,2.42-2.21,3.83-.07.2-.14.38-.27.52-.18.01-.04-.44.05-.5.15-.6.31-1.19.55-1.79.59-1.5,1.59-2.75,2.95-3.56.36-.21.73-.42,1.11-.58.77-.31,1.59-.5,2.42-.54Z"/>
  <path class="cls-2" d="M7.56,10.49c.2-.03.19.13.08.26.06.19-.02.31-.1.5-.48,1.17-.8,2.4-.88,3.64-.04,0-.07.05-.07.11v1.06c0,.07-.02.11-.07.12-.12-.4-.25-.81-.27-1.23-.05-.94.13-1.86.52-2.74l.61-1.39c.05-.11.11-.24.18-.33Z"/>
  <path class="cls-2" d="M26.01,16.95c-.24-.46-.43-.94-.63-1.45l-.59-1.49c-.22-.83-.39-1.67-.39-2.56.41,1.25.73,2.4,1.25,3.55l.38,1.3c.06.2.06.37-.01.65Z"/>
  <path class="cls-2" d="M18.66,24.44l-.02-.96c.07-.63.2-1.26.43-1.88.12-.33.19-.65.29-1.04.21.21.16.52.09.79l-.38,1.48c-.27,1.05-.08,2.08.44,3.11-.51-.25-.64-1.07-.86-1.5Z"/>
  <path class="cls-2" d="M19.13,19.87c-.09.15-.3,0-.25-.15-.07-.13,0-.16.19-.07-.07-.17-.19-.26-.36-.28.03.12,0,.2-.13.24-.02.05-.04.05-.06,0,0-.04-.04-.16-.1-.15-.7.14-1.38.2-2.06.13l.35-.03c.05-.09-.03-.16-.09-.13-.19.08-.32-.03-.42-.05,2.19.17,4.55-.5,5.5-2.57.07.05.16.18.11.26l-.45.71c-.44.53-1,.89-1.6,1.2l-.51.26-.13.64Z"/>
  <path class="cls-2" d="M19.53,8.33c-.16-.18-.25-.51-.2-.75-.04-.21,0-.28.09-.2l.49,1.2c.5,1.24,1.05,2.41,1.79,3.61-.26,0-.36-.32-.48-.48-.07-.19-.2-.26-.3-.41-.62-.92-1.04-1.94-1.38-2.97Z"/>
  <path class="cls-2" d="M26.38,18.4c-.06-.2-.04-.28.05-.25.66,1.28.84,2.44.33,3.72-.16-.31-.12-.53-.09-.8.11-.92-.08-1.81-.29-2.66Z"/>
  <path class="cls-2" d="M6.49,21.28c.05.19.03.25-.08.18-.4-.93-.31-1.98-.02-2.96.03-.1.08-.18.1-.29l.25-1.05c.4.84-.25,1.71-.37,2.83-.04.41,0,1.05.11,1.29Z"/>
  <path class="cls-2" d="M22.81,6.86c.08.14,0,.17-.11.06-.8-1-1.83-1.72-3.04-2.19.35-.11.62.07.91.17.95.4,1.7,1.1,2.24,1.96Z"/>
  <path class="cls-2" d="M11.1,14.12c.09.64.15,1.27.37,1.9.18.5.43.94.72,1.35-.46-.21-.48-.47-.51-.48l-.24-.06c.12-.02.23-.18.16-.22-.18-.07-.31.15-.41.21-.16.09-.3-.08-.4-.16-.08-.06-.2-.05-.22-.16.19.07.34.09.54.1-.18.04-.11.13.02.15.07-.08.17-.13.36-.16-.26-.62-.44-1.2-.51-1.81.05.03.13.01.14-.03.03-.1,0-.51-.24-.53.1-.14.17-.03.23-.09Z"/>
  <path class="cls-2" d="M25.97,15.39c-.43-.93-.79-1.88-1.08-2.89-.02-.05,0-.08.07-.09.44.77.78,1.63,1,2.52.04.17.07.33,0,.46Z"/>
  <path class="cls-2" d="M25.8,26.34c.03-.52.19-1.01.17-1.56-.01-.33-.05-.67.11-1.03.24.83.28,1.79-.27,2.59Z"/>
  <path class="cls-2" d="M18.88,19.73l.25.15c.04.35,0,.7-.11,1.08l-.16.57s-.07-.11-.13-.08l.06-.49c-.16-.33-.22-.85-.19-1.21,0-.05.05-.07.1-.09.02-.16.24-.05.18.08Z"/>
  <path class="cls-2" d="M21.44,27.28c-.21-.05-.38-.17-.52-.34-.36-.43-.71-.88-.78-1.44.25.34.42.64.66.92.23.27.46.51.64.86Z"/>
  <path class="cls-2" d="M18.01,6.87c-.51.54-1.16.94-1.89,1.24.58-.49,1.17-.89,1.89-1.24Z"/>
  <path class="cls-2" d="M17.25,3.67c.07.08,0,.11-.19.08-.51-.11-1.03-.12-1.56-.12.07-.12.23-.06.35-.12-.33-.02-.64-.04-.94-.02.78-.12,1.57-.02,2.33.18Z"/>
  <path class="cls-2" d="M19.33,7.58c.05.25.12.5.2.75-.06,0-.07.04-.06.07v.11c-.16-.49-.29-.99-.36-1.53,0-.06.03-.12.07-.12.1.22.18.47.15.71Z"/>
  <path class="cls-2" d="M23.06,7.49c-.05-.1-.01-.12.07-.04.02.07.15.06.18.09.14.18.23.42.3.65-.19,0-.24-.15-.31-.28l-.23-.43Z"/>
  <path class="cls-2" d="M7.88,9.95c-.04.17-.1.33-.05.5.03.12-.08.27-.18.3-.02-.07-.02-.18-.08-.26.13-.16.2-.34.2-.54h.12Z"/>
  <path class="cls-2" d="M26.6,22.3c-.04.15-.18.29-.17.47-.02-.08-.09-.17-.05-.3l.2-.7c.1.2.06.37.02.54Z"/>
  <path class="cls-2" d="M6.84,22.11c-.18.01-.3-.33-.43-.64.07-.04.07-.11.08-.18l.35.82Z"/>
  <path class="cls-2" d="M17.06,3.75c.07,0,.15-.01.19-.08.26.07.53.11.77.29l-.96-.21Z"/>
  <path class="cls-2" d="M19.41,7.38c-.07.03-.09.12-.09.2-.05-.24-.15-.46-.15-.71v-.19s.24.7.24.7Z"/>
  <path class="cls-2" d="M23.13,7.45l-.07.04-.36-.57.11-.06c.12.2.28.37.33.59Z"/>
  <path class="cls-2" d="M26.43,18.14c-.04.06-.07.18-.05.25-.07-.23-.22-.43-.22-.72.14.14.19.31.27.47Z"/>
  <path class="cls-2" d="M7.39,22.79c-.18-.05-.32-.2-.31-.39.13.09.25.23.31.39Z"/>
  <polygon class="cls-2" points="23.62 8.38 23.62 8.42 23.62 8.46 23.62 8.49 23.62 8.46 23.62 8.42 23.62 8.38"/>
  <path class="cls-2" d="M14.87,15.45c-1.08.49-2.42-.09-2.64-1.22-.12-.6.08-1.21.53-1.61.84-.74,2.15-.6,2.8.3s.31,2.08-.69,2.54Z"/>
  <path class="cls-2" d="M20.9,12.57c.76.53.99,1.7.32,2.38l-.31.32c-.12.06-.35.15-.36-.03l-.1-.04c-.2.12-.38-.21-.46-.38-.26-.53-.22-2,.43-2.19.07-.02.1-.01.15.06.04-.16.15-.2.32-.11Z"/>
  <path class="cls-2" d="M20.11,12.21c.16.1.1.15-.19.15l-.11.11c-2.36.11-1.93,3.26.38,2.85l.14.08c.23-.07.29-.04.17.1-.71.3-1.58.13-2.11-.46-.66-.73-.56-1.82.19-2.43.43-.36.98-.48,1.53-.4Z"/>
  <path class="cls-2" d="M15.38,11.31c-.09.38-1.06-.28-2.4.26-.06.02-.12-.01-.14-.04-.19-.2,1.17-1.01,2.4-.46.11.05.16.15.14.23Z"/>
  <path class="cls-2" d="M21.06,15.94c.26.1.51.35.15.45-.22.26-1.23.36-1.42.03-.07-.11,0-.2.11-.25.35-.24.74-.25,1.16-.23Z"/>
  <path class="cls-2" d="M16.96,17.2c.07-.05.14-.04.16,0,.02.04,0,.09-.05.13-.46.32-1.07.15-1.31-.36-.02-.04,0-.08.02-.1.05-.03.12-.02.15.04.19.37.66.54,1.04.28Z"/>
  <path class="cls-2" d="M16.95,15.07c.29.32.25,1,.03,1.1-.27.14-.43-.73-.03-1.1Z"/>
  <path class="cls-2" d="M13.7,16.47s.05-.05.06,0c-.37.41-1.91.08-1.68-.42.09-.2.55-.25.45-.14-.02.03-.51.13-.35.3.32.36,1.17.38,1.52.25Z"/>
  <path class="cls-2" d="M19.9,16.18c-.04.06-.09.13-.07.19.06.25.8.32,1.39.03.1-.05.12-.01.05.08-.74.37-1.54.22-1.55-.14,0-.16.13-.12.19-.16Z"/>
  <path class="cls-2" d="M20.9,12.57l-.32.11c-.19-.09-.38-.15-.59-.2l-.07-.12s.09-.03.13-.05c.03-.01.04-.07.06-.1.31.05.54.18.79.35Z"/>
  <path class="cls-2" d="M20.91,15.26c-.1.14-.26.17-.41.24-.03-.09-.11-.1-.17-.1,0-.07.04-.15.12-.22l.46.07Z"/>
  <path class="cls-2" d="M21.26,16.47l-.05-.08c.06-.03.1-.11.12-.16.05-.17-.28-.13-.27-.29.14,0,.29.07.36.2.07.15-.03.27-.16.33Z"/>
  <path class="cls-2" d="M13.77,16.47s-.05-.01-.06,0c.04-.05.07-.13.05-.19-.04-.14-.35-.14-.47-.33.17.02.3.08.43.16.14.09.14.27.05.37Z"/>
  <path class="cls-2" d="M18.59,19.61c.09-.12.12-.11.12.04l.07.94c.09.29.13.55-.04.84-.06-.17.01-.31.01-.48l-.14-.15c-.1-.41-.15-.82-.08-1.2.02,0,.04,0,.06,0Z"/>
  <path class="cls-2" d="M19.07,19.66c-.18-.01-.48-.07-.36-.28l.28-.1c.08.1.16.29.09.38Z"/>
  <path class="cls-2" d="M19.07,19.66c-.05.01-.17,0-.19.07-.06-.04-.1-.09-.18-.08-.03,0-.09-.03-.12-.04-.02-.1.03-.2.13-.24.07.15.24.18.36.28Z"/>
  <path class="cls-1" d="M14.2,13.62c-.11.64.08,1.27.62,1.66-.51.25-1.12.24-1.64-.04-.49-.26-.8-.74-.83-1.25-.03-.56.23-1.1.72-1.41.56-.35,1.25-.35,1.81-.04-.4.25-.61.62-.68,1.08Z"/>
  <path class="cls-1" d="M19.92,12.36c.23.01.48.11.7.22,0,.03-.03.08-.04.1-.75.28-.92,1.96-.13,2.51l.12.08c-.07.07-.16.1-.25.13-.75.22-1.61-.03-2.01-.74-.48-.83-.06-1.85.83-2.18.26-.1.53-.13.78-.12Z"/>
  <path class="cls-2" d="M16.92,16.08c-.17-.29-.1-.59.01-.84.12.28.14.56-.01.84Z"/>
</svg>